<svg width="251" height="182" viewBox="0 0 251 182" fill="none" xmlns="http://www.w3.org/2000/svg">
<g filter="url(#filter0_d_148_11)">
<ellipse cx="133.866" cy="125.107" rx="5.24966" ry="5.15421" transform="rotate(-15.8852 133.866 125.107)" fill="#886551"/>
<ellipse cx="175.835" cy="110.295" rx="5.24966" ry="5.15421" transform="rotate(-15.8852 175.835 110.295)" fill="#886551"/>
<ellipse cx="161.022" cy="100.42" rx="5.24966" ry="5.15421" transform="rotate(-15.8852 161.022 100.42)" fill="#886551"/>
<ellipse cx="141.802" cy="105.881" rx="5.67974" ry="5.57648" transform="rotate(-15.8852 141.802 105.881)" fill="#886551"/>
<path d="M144.862 123.477C147.236 113.191 159.706 109.133 167.679 116.052L171.568 119.427C179.792 126.563 177.079 139.944 166.725 143.313L161.678 144.956C151.324 148.325 141.255 139.104 143.704 128.495L144.862 123.477Z" fill="#886551"/>
<path d="M57.816 140.04C57.976 140.008 58.184 139.992 58.44 139.992C59.4 139.992 60.152 140.28 60.696 140.856C61.24 141.4 61.512 142.152 61.512 143.112C61.512 144.776 60.648 145.784 58.92 146.136C57.48 146.424 54.792 146.568 50.856 146.568H49.32C47.56 146.568 45.88 146.52 44.28 146.424C42.712 146.328 40.776 146.136 38.472 145.848C37.064 145.656 36.36 144.696 36.36 142.968C36.36 142.136 36.52 141.448 36.84 140.904C37.16 140.328 37.656 140.008 38.328 139.944H38.808C39.192 137.352 39.352 134.856 39.288 132.456H38.952C38.184 132.456 37.608 132.2 37.224 131.688C36.872 131.144 36.696 130.344 36.696 129.288C36.696 128.392 36.872 127.656 37.224 127.08C37.608 126.504 38.168 126.216 38.904 126.216H39.288C39.32 125.032 39.336 122.776 39.336 119.448C38.248 119 37.704 118.088 37.704 116.712C37.704 115.688 37.976 114.952 38.52 114.504C39.064 114.024 39.912 113.72 41.064 113.592C42.632 113.432 45.48 113.352 49.608 113.352C53.608 113.352 56.664 113.48 58.776 113.736C59.736 113.832 60.472 114.12 60.984 114.6C61.528 115.048 61.8 115.752 61.8 116.712C61.8 117.672 61.56 118.456 61.08 119.064C60.6 119.64 59.944 119.896 59.112 119.832C56.168 119.576 53.576 119.448 51.336 119.448C50.312 119.448 49 119.48 47.4 119.544L46.152 119.592L46.296 126.312H47.4C49 126.312 50.952 126.344 53.256 126.408L56.328 126.504C57.576 126.504 58.2 127.512 58.2 129.528C58.2 130.488 58.008 131.24 57.624 131.784C57.272 132.328 56.76 132.6 56.088 132.6C55.128 132.6 54.312 132.584 53.64 132.552L47.4 132.504H46.344C46.28 135.384 46.088 137.976 45.768 140.28C46.984 140.408 48.504 140.472 50.328 140.472C52.984 140.472 55.48 140.328 57.816 140.04ZM87.5591 113.784C88.5191 113.88 89.2711 114.168 89.8151 114.648C90.3591 115.096 90.6311 115.864 90.6311 116.952C90.6311 118.072 90.3111 118.888 89.6711 119.4C89.0631 119.912 88.1831 120.136 87.0311 120.072C84.7271 119.912 82.8391 119.832 81.3671 119.832C81.1111 123.448 80.9351 127.064 80.8391 130.68C80.7431 134.264 80.6951 138.808 80.6951 144.312C80.6951 145.496 80.4551 146.328 79.9751 146.808C79.5271 147.256 78.6471 147.48 77.3351 147.48C75.9591 147.48 74.9671 147.24 74.3591 146.76C73.7511 146.28 73.4471 145.48 73.4471 144.36C73.4471 139.688 73.5591 135.128 73.7831 130.68L74.3591 119.88C72.9511 119.944 71.8151 120.008 70.9511 120.072L68.8391 120.216C68.7111 120.248 68.5191 120.264 68.2631 120.264C67.3351 120.264 66.5831 119.96 66.0071 119.352C65.4311 118.744 65.1431 117.944 65.1431 116.952C65.1431 116.024 65.3831 115.336 65.8631 114.888C66.3751 114.44 67.0791 114.152 67.9751 114.024C69.1271 113.864 70.7431 113.736 72.8231 113.64C74.9031 113.544 76.8231 113.496 78.5831 113.496C80.0231 113.496 81.6551 113.528 83.4791 113.592C85.3351 113.624 86.6951 113.688 87.5591 113.784ZM127.583 131.448C127.583 132.376 127.295 133.128 126.719 133.704C126.175 134.28 125.391 134.584 124.367 134.616C124.015 138.552 122.719 141.608 120.479 143.784C118.271 145.96 115.231 147.048 111.359 147.048C108.159 147.048 105.263 146.328 102.671 144.888C100.111 143.416 98.0945 141.4 96.6225 138.84C95.1825 136.28 94.4625 133.432 94.4625 130.296C94.4625 127.192 95.1505 124.392 96.5265 121.896C97.9345 119.368 99.8385 117.384 102.239 115.944C104.639 114.504 107.279 113.784 110.159 113.784C112.527 113.784 114.495 114.248 116.062 115.176C117.663 116.072 118.799 117.096 119.471 118.248V117.144C119.471 116.504 119.727 115.96 120.239 115.512C120.783 115.064 121.551 114.84 122.543 114.84C123.567 114.84 124.335 115.08 124.847 115.56C125.391 116.008 125.679 116.584 125.711 117.288C125.807 119.944 125.583 121.8 125.039 122.856C124.751 123.368 124.319 123.752 123.743 124.008C123.199 124.264 122.575 124.392 121.871 124.392C121.231 124.392 120.671 124.28 120.191 124.056C119.711 123.8 119.087 123.336 118.319 122.664C117.455 121.896 116.559 121.272 115.631 120.792C114.703 120.312 113.439 120.072 111.839 120.072C109.855 120.072 108.063 120.504 106.463 121.368C104.895 122.2 103.663 123.4 102.767 124.968C101.871 126.504 101.423 128.28 101.423 130.296C101.423 132.312 101.871 134.12 102.767 135.72C103.663 137.32 104.863 138.568 106.367 139.464C107.871 140.36 109.471 140.808 111.167 140.808C112.959 140.808 114.415 140.296 115.535 139.272C116.655 138.216 117.359 136.648 117.647 134.568L112.799 134.472C111.679 134.44 110.847 134.152 110.303 133.608C109.791 133.064 109.535 132.344 109.535 131.448C109.535 130.456 109.839 129.656 110.447 129.048C111.055 128.44 111.887 128.152 112.943 128.184L123.887 128.424C125.103 128.456 126.015 128.728 126.623 129.24C127.263 129.752 127.583 130.488 127.583 131.448ZM193.083 113.544C199.515 114.184 204.427 115.848 207.819 118.536C211.211 121.224 212.907 124.92 212.907 129.624C212.907 133.048 212.011 136.056 210.219 138.648C208.459 141.208 205.947 143.208 202.683 144.648C199.451 146.056 195.675 146.76 191.355 146.76H188.235C186.827 146.76 185.819 146.52 185.211 146.04C184.603 145.56 184.299 144.744 184.299 143.592C184.299 142.6 184.507 141.864 184.923 141.384C185.371 140.872 186.059 140.616 186.987 140.616H187.467L186.891 119.448H186.603C185.899 119.448 185.323 119.208 184.875 118.728C184.459 118.216 184.251 117.464 184.251 116.472C184.251 115.384 184.491 114.584 184.971 114.072C185.483 113.528 186.123 113.256 186.891 113.256H187.515C188.059 112.712 188.955 112.44 190.203 112.44C191.643 112.44 192.603 112.808 193.083 113.544ZM194.427 140.472C196.571 140.216 198.507 139.624 200.235 138.696C201.995 137.736 203.387 136.488 204.411 134.952C205.435 133.384 205.947 131.608 205.947 129.624C205.947 126.616 204.859 124.36 202.683 122.856C200.507 121.32 197.563 120.312 193.851 119.832L194.427 140.472ZM245.153 141.816L245.729 143.688C245.825 144.008 245.873 144.312 245.873 144.6C245.873 145.528 245.473 146.248 244.673 146.76C243.905 147.272 242.993 147.528 241.937 147.528C241.105 147.528 240.385 147.352 239.777 147C239.169 146.648 238.769 146.152 238.577 145.512L236.945 139.32L227.153 139.272L225.473 145.368C225.281 146.104 224.881 146.648 224.273 147C223.697 147.32 222.993 147.48 222.161 147.48C221.105 147.48 220.177 147.224 219.377 146.712C218.577 146.168 218.177 145.464 218.177 144.6C218.177 144.28 218.225 143.96 218.321 143.64L223.841 127.032L226.529 118.824C227.265 116.648 228.065 115.112 228.929 114.216C229.793 113.288 230.961 112.824 232.433 112.824C233.841 112.824 234.945 113.24 235.745 114.072C236.577 114.872 237.329 116.312 238.001 118.392C239.761 123.96 241.297 128.904 242.609 133.224H243.905C245.473 133.224 246.257 134.232 246.257 136.248C246.257 138.296 245.665 139.32 244.481 139.32H244.433L245.153 141.816ZM235.313 133.128L234.689 130.872L233.489 126.648L233.009 124.968C232.817 124.264 232.657 123.752 232.529 123.432C232.401 123.112 232.273 122.952 232.145 122.952C231.985 122.952 231.857 123.096 231.761 123.384C231.665 123.672 231.521 124.184 231.329 124.92L230.945 126.312L228.977 133.08L235.313 133.128Z" fill="#D2C8BC"/>
<path d="M41.86 48.3C48.86 48.3 55.3467 49.6533 61.32 52.36C67.3867 54.9733 72.24 58.7533 75.88 63.7C79.52 68.5533 81.34 74.2 81.34 80.64C81.34 86.52 79.7533 91.7467 76.58 96.32C73.4067 100.8 69.02 104.253 63.42 106.68C57.9133 109.107 51.6133 110.32 44.52 110.32C36.4933 110.32 29.7267 108.873 24.22 105.98L23.8 142.66C23.8 144.34 23.2867 145.647 22.26 146.58C21.3267 147.513 20.02 147.98 18.34 147.98C16.5667 147.98 15.1667 147.513 14.14 146.58C13.2067 145.647 12.74 144.387 12.74 142.8C12.74 138.507 12.8333 132.16 13.02 123.76C13.2067 114.8 13.3 107.707 13.3 102.48C13.3 92.8667 13.1133 82.46 12.74 71.26C12.6467 70.6067 12.6 69.6267 12.6 68.32L12.18 68.6C11.2467 69.0667 10.4533 69.3 9.8 69.3C8.49333 69.3 7.42 68.6933 6.58 67.48C5.83333 66.1733 5.46 64.68 5.46 63C5.46 61.88 5.83333 60.9933 6.58 60.34C7.32667 59.5933 8.44667 58.8467 9.94 58.1L12.32 56.7V54.46C12.32 52.3133 12.7867 50.7267 13.72 49.7C14.6533 48.6733 16.1 48.16 18.06 48.16C19.74 48.16 21.0467 48.44 21.98 49C22.9133 49.56 23.38 50.3067 23.38 51.24V51.52C29.3533 49.3733 35.5133 48.3 41.86 48.3ZM42.56 101.08C47.88 101.08 52.5467 100.193 56.56 98.42C60.6667 96.6467 63.84 94.1733 66.08 91C68.32 87.8267 69.44 84.2333 69.44 80.22C69.44 75.9267 68.18 72.1 65.66 68.74C63.14 65.38 59.78 62.7667 55.58 60.9C51.4733 59.0333 46.9467 58.1 42 58.1C36.8667 58.1 30.7067 59.7333 23.52 63C23.7067 69.5333 23.8 73.8267 23.8 75.88C23.8 77.9333 23.8933 81.2 24.08 85.68C24.2667 91.1867 24.3133 94.8267 24.22 96.6C29.4467 99.5867 35.56 101.08 42.56 101.08Z" fill="#D2C8BC"/>
</g>
<defs>
<filter id="filter0_d_148_11" x="1.45999" y="48.16" width="248.797" height="107.82" filterUnits="userSpaceOnUse" color-interpolation-filters="sRGB">
<feFlood flood-opacity="0" result="BackgroundImageFix"/>
<feColorMatrix in="SourceAlpha" type="matrix" values="0 0 0 0 0 0 0 0 0 0 0 0 0 0 0 0 0 0 127 0" result="hardAlpha"/>
<feOffset dy="4"/>
<feGaussianBlur stdDeviation="2"/>
<feComposite in2="hardAlpha" operator="out"/>
<feColorMatrix type="matrix" values="0 0 0 0 0 0 0 0 0 0 0 0 0 0 0 0 0 0 0.25 0"/>
<feBlend mode="normal" in2="BackgroundImageFix" result="effect1_dropShadow_148_11"/>
<feBlend mode="normal" in="SourceGraphic" in2="effect1_dropShadow_148_11" result="shape"/>
</filter>
</defs>
</svg>
