<svg width="97" height="72" viewBox="0 0 97 72" fill="none" xmlns="http://www.w3.org/2000/svg">
<ellipse cx="47.6167" cy="49.8156" rx="2.12644" ry="2.08778" transform="rotate(-15.8852 47.6167 49.8156)" fill="#886551"/>
<ellipse cx="64.6167" cy="43.8156" rx="2.12644" ry="2.08778" transform="rotate(-15.8852 64.6167 43.8156)" fill="#886551"/>
<ellipse cx="58.6167" cy="39.8156" rx="2.12644" ry="2.08778" transform="rotate(-15.8852 58.6167 39.8156)" fill="#886551"/>
<ellipse cx="50.8311" cy="42.0277" rx="2.30066" ry="2.25883" transform="rotate(-15.8852 50.8311 42.0277)" fill="#886551"/>
<path d="M52.3216 48.0684C53.1694 44.3949 57.6231 42.9455 60.4705 45.4164L63.7844 48.2922C66.7216 50.8409 65.7526 55.6197 62.0547 56.8231L57.754 58.2227C54.0561 59.4261 50.4603 56.1329 51.3348 52.3437L52.3216 48.0684Z" fill="#886551"/>
<path d="M22.34 55.1C22.4067 55.0867 22.4933 55.08 22.6 55.08C23 55.08 23.3133 55.2 23.54 55.44C23.7667 55.6667 23.88 55.98 23.88 56.38C23.88 57.0733 23.52 57.4933 22.8 57.64C22.2 57.76 21.08 57.82 19.44 57.82H18.8C18.0667 57.82 17.3667 57.8 16.7 57.76C16.0467 57.72 15.24 57.64 14.28 57.52C13.6933 57.44 13.4 57.04 13.4 56.32C13.4 55.9733 13.4667 55.6867 13.6 55.46C13.7333 55.22 13.94 55.0867 14.22 55.06H14.42C14.58 53.98 14.6467 52.94 14.62 51.94H14.48C14.16 51.94 13.92 51.8333 13.76 51.62C13.6133 51.3933 13.54 51.06 13.54 50.62C13.54 50.2467 13.6133 49.94 13.76 49.7C13.92 49.46 14.1533 49.34 14.46 49.34H14.62C14.6333 48.8467 14.64 47.9067 14.64 46.52C14.1867 46.3333 13.96 45.9533 13.96 45.38C13.96 44.9533 14.0733 44.6467 14.3 44.46C14.5267 44.26 14.88 44.1333 15.36 44.08C16.0133 44.0133 17.2 43.98 18.92 43.98C20.5867 43.98 21.86 44.0333 22.74 44.14C23.14 44.18 23.4467 44.3 23.66 44.5C23.8867 44.6867 24 44.98 24 45.38C24 45.78 23.9 46.1067 23.7 46.36C23.5 46.6 23.2267 46.7067 22.88 46.68C21.6533 46.5733 20.5733 46.52 19.64 46.52C19.2133 46.52 18.6667 46.5333 18 46.56L17.48 46.58L17.54 49.38H18C18.6667 49.38 19.48 49.3933 20.44 49.42L21.72 49.46C22.24 49.46 22.5 49.88 22.5 50.72C22.5 51.12 22.42 51.4333 22.26 51.66C22.1133 51.8867 21.9 52 21.62 52C21.22 52 20.88 51.9933 20.6 51.98L18 51.96H17.56C17.5333 53.16 17.4533 54.24 17.32 55.2C17.8267 55.2533 18.46 55.28 19.22 55.28C20.3267 55.28 21.3667 55.22 22.34 55.1ZM34.733 44.16C35.133 44.2 35.4463 44.32 35.673 44.52C35.8996 44.7067 36.013 45.0267 36.013 45.48C36.013 45.9467 35.8796 46.2867 35.613 46.5C35.3596 46.7133 34.993 46.8067 34.513 46.78C33.553 46.7133 32.7663 46.68 32.153 46.68C32.0463 48.1867 31.973 49.6933 31.933 51.2C31.893 52.6933 31.873 54.5867 31.873 56.88C31.873 57.3733 31.773 57.72 31.573 57.92C31.3863 58.1067 31.0196 58.2 30.473 58.2C29.8996 58.2 29.4863 58.1 29.233 57.9C28.9796 57.7 28.853 57.3667 28.853 56.9C28.853 54.9533 28.8996 53.0533 28.993 51.2L29.233 46.7C28.6463 46.7267 28.173 46.7533 27.813 46.78L26.933 46.84C26.8796 46.8533 26.7996 46.86 26.693 46.86C26.3063 46.86 25.993 46.7333 25.753 46.48C25.513 46.2267 25.393 45.8933 25.393 45.48C25.393 45.0933 25.493 44.8067 25.693 44.62C25.9063 44.4333 26.1996 44.3133 26.573 44.26C27.053 44.1933 27.7263 44.14 28.593 44.1C29.4596 44.06 30.2596 44.04 30.993 44.04C31.593 44.04 32.273 44.0533 33.033 44.08C33.8063 44.0933 34.373 44.12 34.733 44.16ZM42.1894 58.06C40.8827 58.06 39.9227 57.92 39.3094 57.64C38.7094 57.36 38.3094 56.8933 38.1094 56.24C37.9094 55.5867 37.8094 54.58 37.8094 53.22C37.8094 51.6867 37.876 50.28 38.0094 49C38.156 47.72 38.3494 46.3733 38.5894 44.96C38.6427 44.64 38.8027 44.3867 39.0694 44.2C39.3494 44 39.7027 43.9 40.1294 43.9C40.5827 43.9 40.9227 44.0133 41.1494 44.24C41.3894 44.4533 41.5094 44.7467 41.5094 45.12C41.5094 45.2 41.496 45.32 41.4694 45.48C41.1894 47.12 40.976 48.52 40.8294 49.68C40.6827 50.8267 40.6094 52.0333 40.6094 53.3C40.6094 53.9533 40.636 54.4333 40.6894 54.74C40.756 55.0467 40.876 55.26 41.0494 55.38C41.236 55.5 41.5227 55.56 41.9094 55.56C42.736 55.56 44.1627 55.3733 46.1894 55C46.256 54.9867 46.3494 54.98 46.4694 54.98C46.816 54.98 47.0894 55.1133 47.2894 55.38C47.5027 55.6333 47.6094 55.9333 47.6094 56.28C47.6094 56.9867 47.096 57.4333 46.0694 57.62C45.1494 57.7933 44.4494 57.9133 43.9694 57.98C43.5027 58.0333 42.9094 58.06 42.1894 58.06ZM81.292 55.62C81.6654 55.94 81.852 56.2867 81.852 56.66C81.852 57.06 81.712 57.4 81.432 57.68C81.152 57.9467 80.8054 58.08 80.392 58.08C80.0587 58.08 79.7587 57.9867 79.492 57.8L76.552 55.18L74.172 53.08L74.152 54.32C74.1387 54.88 74.132 55.6267 74.132 56.56C74.132 57 73.9987 57.36 73.732 57.64C73.4654 57.9067 73.112 58.04 72.672 58.04C72.1654 58.04 71.7987 57.9467 71.572 57.76C71.3454 57.56 71.232 57.2133 71.232 56.72C71.232 56.1467 71.2454 55.2733 71.272 54.1C71.312 53.14 71.332 52.0867 71.332 50.94C71.332 50.0733 71.3187 49.0133 71.292 47.76L71.272 45.26C71.272 44.8867 71.4054 44.58 71.672 44.34C71.952 44.1 72.312 43.98 72.752 43.98C73.192 43.98 73.5387 44.1067 73.792 44.36C74.0587 44.6 74.192 44.92 74.192 45.32L74.212 48.32C75.2787 47.5467 76.0787 46.96 76.612 46.56L77.972 45.58L79.812 44.24C80.0787 44.0533 80.3854 43.96 80.732 43.96C81.172 43.96 81.5254 44.0867 81.792 44.34C82.0587 44.5933 82.192 44.92 82.192 45.32C82.192 45.72 82.0454 46.04 81.752 46.28C81.4454 46.52 80.9987 46.8333 80.412 47.22C79.8387 47.5933 79.432 47.86 79.192 48.02L78.332 48.56C77.5587 49.0667 76.852 49.52 76.212 49.92C75.5854 50.32 75.2387 50.54 75.172 50.58C75.7454 51.0333 76.2254 51.42 76.612 51.74C76.9987 52.0467 77.312 52.3 77.552 52.5L78.132 52.98C78.0654 52.9267 78.432 53.2333 79.232 53.9C80.0454 54.6067 80.732 55.18 81.292 55.62ZM95.4361 55.84L95.6761 56.62C95.7161 56.7533 95.7361 56.88 95.7361 57C95.7361 57.3867 95.5694 57.6867 95.2361 57.9C94.9161 58.1133 94.5361 58.22 94.0961 58.22C93.7494 58.22 93.4494 58.1467 93.1961 58C92.9428 57.8533 92.7761 57.6467 92.6961 57.38L92.0161 54.8L87.9361 54.78L87.2361 57.32C87.1561 57.6267 86.9894 57.8533 86.7361 58C86.4961 58.1333 86.2028 58.2 85.8561 58.2C85.4161 58.2 85.0294 58.0933 84.6961 57.88C84.3628 57.6533 84.1961 57.36 84.1961 57C84.1961 56.8667 84.2161 56.7333 84.2561 56.6L86.5561 49.68L87.6761 46.26C87.9828 45.3533 88.3161 44.7133 88.6761 44.34C89.0361 43.9533 89.5228 43.76 90.1361 43.76C90.7228 43.76 91.1828 43.9333 91.5161 44.28C91.8628 44.6133 92.1761 45.2133 92.4561 46.08C93.1894 48.4 93.8294 50.46 94.3761 52.26H94.9161C95.5694 52.26 95.8961 52.68 95.8961 53.52C95.8961 54.3733 95.6494 54.8 95.1561 54.8H95.1361L95.4361 55.84ZM91.3361 52.22L91.0761 51.28L90.5761 49.52L90.3761 48.82C90.2961 48.5267 90.2294 48.3133 90.1761 48.18C90.1228 48.0467 90.0694 47.98 90.0161 47.98C89.9494 47.98 89.8961 48.04 89.8561 48.16C89.8161 48.28 89.7561 48.4933 89.6761 48.8L89.5161 49.38L88.6961 52.2L91.3361 52.22Z" fill="#262721"/>
<path d="M16.445 19.225C19.195 19.225 21.7433 19.7567 24.09 20.82C26.4733 21.8467 28.38 23.3317 29.81 25.275C31.24 27.1817 31.955 29.4 31.955 31.93C31.955 34.24 31.3317 36.2933 30.085 38.09C28.8383 39.85 27.115 41.2067 24.915 42.16C22.7517 43.1133 20.2767 43.59 17.49 43.59C14.3367 43.59 11.6783 43.0217 9.515 41.885L9.35 56.295C9.35 56.955 9.14833 57.4683 8.745 57.835C8.37833 58.2017 7.865 58.385 7.205 58.385C6.50833 58.385 5.95833 58.2017 5.555 57.835C5.18833 57.4683 5.005 56.9733 5.005 56.35C5.005 54.6633 5.04167 52.17 5.115 48.87C5.18833 45.35 5.225 42.5633 5.225 40.51C5.225 36.7333 5.15167 32.645 5.005 28.245C4.96833 27.9883 4.95 27.6033 4.95 27.09L4.785 27.2C4.41833 27.3833 4.10667 27.475 3.85 27.475C3.33667 27.475 2.915 27.2367 2.585 26.76C2.29167 26.2467 2.145 25.66 2.145 25C2.145 24.56 2.29167 24.2117 2.585 23.955C2.87833 23.6617 3.31833 23.3683 3.905 23.075L4.84 22.525V21.645C4.84 20.8017 5.02333 20.1783 5.39 19.775C5.75667 19.3717 6.325 19.17 7.095 19.17C7.755 19.17 8.26833 19.28 8.635 19.5C9.00167 19.72 9.185 20.0133 9.185 20.38V20.49C11.5317 19.6467 13.9517 19.225 16.445 19.225ZM16.72 39.96C18.81 39.96 20.6433 39.6117 22.22 38.915C23.8333 38.2183 25.08 37.2467 25.96 36C26.84 34.7533 27.28 33.3417 27.28 31.765C27.28 30.0783 26.785 28.575 25.795 27.255C24.805 25.935 23.485 24.9083 21.835 24.175C20.2217 23.4417 18.4433 23.075 16.5 23.075C14.4833 23.075 12.0633 23.7167 9.24 25C9.31333 27.5667 9.35 29.2533 9.35 30.06C9.35 30.8667 9.38667 32.15 9.46 33.91C9.53333 36.0733 9.55167 37.5033 9.515 38.2C11.5683 39.3733 13.97 39.96 16.72 39.96Z" fill="#262721"/>
</svg>
