<svg width="487" height="361" viewBox="0 0 487 361" fill="none" xmlns="http://www.w3.org/2000/svg">
<path d="M241.934 259.838C247.605 258.226 250.918 252.412 249.334 246.852C247.749 241.291 241.867 238.09 236.196 239.702C230.525 241.313 227.212 247.128 228.797 252.688C230.382 258.249 236.263 261.45 241.934 259.838Z" fill="#886551"/>
<path d="M327.285 229.755C332.956 228.143 336.269 222.329 334.684 216.768C333.1 211.208 327.218 208.007 321.547 209.618C315.876 211.23 312.563 217.044 314.147 222.605C315.732 228.165 321.614 231.366 327.285 229.755Z" fill="#886551"/>
<path d="M297.161 209.699C302.832 208.087 306.145 202.273 304.561 196.713C302.976 191.152 297.094 187.951 291.423 189.563C285.752 191.175 282.439 196.989 284.024 202.549C285.608 208.11 291.49 211.311 297.161 209.699Z" fill="#886551"/>
<path d="M258.308 221.615C264.443 219.872 268.028 213.581 266.313 207.565C264.599 201.549 258.235 198.086 252.1 199.829C245.964 201.573 242.38 207.864 244.094 213.88C245.808 219.896 252.172 223.359 258.308 221.615Z" fill="#886551"/>
<path d="M262.687 241.01C266.943 222.591 289.304 215.324 303.599 227.713L320.237 242.132C334.984 254.911 330.119 278.871 311.553 284.905L289.961 291.922C271.395 297.956 253.342 281.444 257.732 262.445L262.687 241.01Z" fill="#886551"/>
<path d="M112.161 276.265C112.496 276.199 112.93 276.165 113.466 276.165C115.474 276.165 117.047 276.767 118.185 277.97C119.324 279.107 119.892 280.677 119.892 282.683C119.892 286.159 118.085 288.265 114.47 289C111.458 289.602 105.835 289.903 97.6008 289.903H94.3876C90.706 289.903 87.1916 289.803 83.8444 289.602C80.5644 289.402 76.5142 289.001 71.6945 288.399C68.7489 287.998 67.2763 285.992 67.2763 282.382C67.2763 280.644 67.6112 279.207 68.2804 278.07C68.9497 276.867 69.9874 276.199 71.3932 276.065H72.3973C73.2006 270.65 73.5355 265.435 73.4015 260.421H72.6986C71.092 260.421 69.887 259.886 69.0837 258.817C68.3472 257.68 67.9792 256.009 67.9792 253.803C67.9792 251.931 68.3472 250.394 69.0837 249.19C69.887 247.987 71.0583 247.385 72.5982 247.385H73.4015C73.4682 244.912 73.5019 240.199 73.5019 233.246C71.226 232.31 70.0879 230.405 70.0879 227.53C70.0879 225.391 70.6567 223.854 71.7949 222.917C72.933 221.915 74.7068 221.279 77.1167 221.012C80.3967 220.678 86.3547 220.511 94.9901 220.511C103.358 220.511 109.751 220.778 114.169 221.313C116.177 221.514 117.717 222.115 118.788 223.118C119.926 224.054 120.495 225.525 120.495 227.53C120.495 229.536 119.993 231.174 118.989 232.444C117.985 233.647 116.612 234.182 114.872 234.048C108.713 233.513 103.291 233.246 98.605 233.246C96.4627 233.246 93.7184 233.313 90.3712 233.447L87.7604 233.547L88.0617 247.586H90.3712C93.7184 247.586 97.8017 247.652 102.621 247.786L109.048 247.987C111.659 247.987 112.964 250.093 112.964 254.304C112.964 256.31 112.562 257.881 111.759 259.017C111.022 260.154 109.952 260.722 108.546 260.722C106.538 260.722 104.831 260.689 103.425 260.622L90.3712 260.522H88.1621C88.028 266.538 87.6264 271.953 86.9571 276.767C89.5011 277.034 92.6806 277.168 96.4963 277.168C102.053 277.168 107.274 276.867 112.161 276.265ZM174.381 221.413C176.389 221.614 177.962 222.216 179.101 223.218C180.238 224.154 180.808 225.759 180.808 228.032C180.808 230.372 180.138 232.076 178.799 233.146C177.527 234.215 175.687 234.684 173.277 234.55C168.457 234.215 164.507 234.048 161.428 234.048C160.892 241.603 160.524 249.157 160.323 256.711C160.123 264.198 160.022 273.692 160.022 285.19C160.022 287.663 159.52 289.402 158.516 290.404C157.579 291.34 155.738 291.808 152.993 291.808C150.115 291.808 148.039 291.307 146.768 290.304C145.496 289.301 144.86 287.63 144.86 285.29C144.86 275.53 145.094 266.003 145.563 256.711L146.768 234.149C143.822 234.282 141.446 234.416 139.638 234.55L135.22 234.851C134.952 234.917 134.551 234.951 134.015 234.951C132.074 234.951 130.501 234.316 129.296 233.045C128.091 231.775 127.489 230.104 127.489 228.032C127.489 226.093 127.991 224.656 128.995 223.72C130.066 222.784 131.538 222.182 133.413 221.915C135.823 221.58 139.203 221.313 143.555 221.112C147.905 220.912 151.922 220.812 155.604 220.812C158.616 220.812 162.03 220.878 165.846 221.012C169.729 221.079 172.574 221.213 174.381 221.413ZM211.817 291.106C205.256 291.106 200.437 290.404 197.358 289C194.345 287.597 192.337 285.257 191.333 281.981C190.329 278.705 189.827 273.658 189.827 266.839C189.827 259.151 190.161 252.098 190.831 245.681C191.567 239.263 192.538 232.511 193.743 225.424C194.01 223.82 194.814 222.55 196.153 221.614C197.558 220.611 199.332 220.11 201.474 220.11C203.75 220.11 205.457 220.678 206.595 221.814C207.8 222.884 208.403 224.355 208.403 226.227C208.403 226.628 208.336 227.229 208.202 228.032C206.796 236.254 205.725 243.274 204.989 249.09C204.252 254.839 203.884 260.889 203.884 267.24C203.884 270.516 204.018 272.922 204.286 274.46C204.62 275.998 205.223 277.067 206.093 277.669C207.03 278.271 208.47 278.572 210.411 278.572C214.561 278.572 221.724 277.636 231.899 275.764C232.234 275.697 232.703 275.664 233.305 275.664C235.045 275.664 236.418 276.332 237.422 277.669C238.493 278.939 239.029 280.443 239.029 282.182C239.029 285.725 236.451 287.964 231.297 288.9C226.678 289.769 223.163 290.371 220.754 290.705C218.41 290.972 215.432 291.106 211.817 291.106ZM408.136 278.872C410.011 280.477 410.948 282.215 410.948 284.087C410.948 286.092 410.245 287.797 408.839 289.201C407.433 290.538 405.693 291.207 403.618 291.207C401.944 291.207 400.438 290.739 399.099 289.803L384.338 276.666L372.389 266.137L372.289 272.354C372.222 275.162 372.189 278.906 372.189 283.586C372.189 285.792 371.519 287.597 370.18 289C368.842 290.338 367.067 291.006 364.858 291.006C362.315 291.006 360.474 290.538 359.336 289.602C358.198 288.599 357.629 286.861 357.629 284.388C357.629 281.513 357.696 277.134 357.83 271.251C358.03 266.438 358.131 261.157 358.131 255.407C358.131 251.062 358.064 245.747 357.93 239.463L357.83 226.929C357.83 225.057 358.499 223.519 359.838 222.316C361.244 221.112 363.051 220.511 365.26 220.511C367.469 220.511 369.21 221.146 370.481 222.416C371.82 223.619 372.49 225.224 372.49 227.229L372.59 242.271C377.946 238.394 381.962 235.452 384.64 233.447L391.468 228.533L400.706 221.814C402.045 220.878 403.584 220.41 405.325 220.41C407.534 220.41 409.308 221.046 410.646 222.316C411.985 223.586 412.655 225.224 412.655 227.229C412.655 229.235 411.919 230.839 410.446 232.043C408.906 233.246 406.664 234.817 403.718 236.756C400.84 238.627 398.798 239.965 397.593 240.767L393.275 243.474C389.393 246.015 385.845 248.288 382.631 250.293C379.485 252.299 377.745 253.402 377.41 253.602C380.289 255.875 382.699 257.814 384.64 259.419C386.581 260.956 388.154 262.226 389.359 263.229L392.271 265.636C391.937 265.369 393.777 266.906 397.794 270.249C401.877 273.792 405.325 276.666 408.136 278.872ZM479.148 279.976L480.353 283.886C480.554 284.555 480.654 285.19 480.654 285.792C480.654 287.73 479.817 289.235 478.144 290.304C476.538 291.374 474.63 291.909 472.421 291.909C470.68 291.909 469.174 291.541 467.902 290.806C466.63 290.07 465.793 289.034 465.392 287.697L461.978 274.761L441.494 274.661L437.979 287.396C437.578 288.934 436.741 290.07 435.469 290.806C434.264 291.474 432.791 291.808 431.051 291.808C428.842 291.808 426.9 291.273 425.227 290.204C423.553 289.067 422.716 287.597 422.716 285.792C422.716 285.123 422.817 284.454 423.018 283.786L434.565 249.09L440.188 231.942C441.728 227.396 443.401 224.187 445.209 222.316C447.016 220.377 449.46 219.408 452.539 219.408C455.485 219.408 457.794 220.277 459.467 222.015C461.208 223.686 462.781 226.694 464.187 231.04C467.868 242.672 471.082 253.001 473.826 262.026H476.538C479.818 262.026 481.458 264.132 481.458 268.343C481.458 272.622 480.219 274.761 477.742 274.761H477.642L479.148 279.976ZM458.564 261.825L457.258 257.112L454.748 248.288L453.744 244.778C453.342 243.307 453.007 242.237 452.74 241.569C452.472 240.901 452.204 240.566 451.936 240.566C451.602 240.566 451.334 240.867 451.133 241.469C450.932 242.071 450.631 243.14 450.23 244.678L449.426 247.586L445.309 261.725L458.564 261.825Z" fill="#262721"/>
<path d="M82.5641 96.392C96.3708 96.392 109.165 99.0579 120.947 104.389C132.912 109.537 142.485 116.983 149.665 126.726C156.844 136.286 160.434 147.408 160.434 160.093C160.434 171.676 157.305 181.971 151.045 190.979C144.786 199.803 136.134 206.606 125.089 211.386C114.228 216.165 101.802 218.555 87.8106 218.555C71.9791 218.555 58.6323 215.706 47.7712 210.007L46.9428 282.257C46.9428 285.566 45.9303 288.14 43.9053 289.978C42.0644 291.817 39.4872 292.736 36.1736 292.736C32.6758 292.736 29.9145 291.817 27.8895 289.978C26.0486 288.14 25.1282 285.658 25.1282 282.533C25.1282 274.076 25.3123 261.575 25.6805 245.029C26.0486 227.38 26.2327 213.408 26.2327 203.113C26.2327 184.177 25.8646 163.678 25.1282 141.617C24.9441 140.33 24.8521 138.4 24.8521 135.826L24.0237 136.378C22.1827 137.297 20.618 137.757 19.3294 137.757C16.7521 137.757 14.6351 136.562 12.9783 134.172C11.5056 131.598 10.7692 128.656 10.7692 125.347C10.7692 123.141 11.5056 121.395 12.9783 120.108C14.451 118.637 16.6601 117.166 19.6055 115.695L24.2998 112.938V108.526C24.2998 104.297 25.2202 101.172 27.0611 99.1496C28.902 97.1275 31.7554 96.1162 35.6213 96.1162C38.9349 96.1162 41.5121 96.6677 43.353 97.7708C45.194 98.8738 46.1144 100.344 46.1144 102.183V102.735C57.8963 98.5063 70.0462 96.392 82.5641 96.392ZM83.9447 200.355C94.4378 200.355 103.642 198.609 111.558 195.115C119.658 191.622 125.917 186.751 130.335 180.5C134.753 174.249 136.962 167.172 136.962 159.266C136.962 150.809 134.477 143.272 129.507 136.653C124.536 130.035 117.909 124.887 109.625 121.211C101.525 117.534 92.5968 115.695 82.8402 115.695C72.7151 115.695 60.5652 118.913 46.3905 125.347C46.7587 138.216 46.9428 146.673 46.9428 150.717C46.9428 154.762 47.1269 161.196 47.4951 170.021C47.8632 180.867 47.9553 188.037 47.7712 191.531C58.08 197.413 70.138 200.355 83.9447 200.355Z" fill="#262721"/>
</svg>
